<svg width="4000" height="4000" viewBox="0 0 4000 4000" fill="none" xmlns="http://www.w3.org/2000/svg">
<g clip-path="url(#clip0_3_126)">
<path d="M840.474 2946L1018.25 3032.05C1280.88 3159.18 1589.83 3227.06 1905.9 3227.06H3106.67V2664.94H1905.9C1589.83 2664.94 1280.88 2732.81 1018.25 2859.95L840.474 2946Z" fill="#FBB03B"/>
<path d="M3106.67 3019.96V3142L3321.53 3153.1V3011.09L3106.67 3019.96Z" fill="#CCCCCC"/>
<path d="M3106.67 2750V2872.04L3321.53 2880.91V2738.91L3106.67 2750Z" fill="#CCCCCC"/>
<path d="M2503.04 2578.04V2664.94H2983.9V2431.97H2705.1L2503.04 2578.04Z" fill="#FBB03B"/>
<path d="M2503.04 3313.96V3227.06H2983.9V3460.04H2705.1L2503.04 3313.96Z" fill="#FBB03B"/>
<path d="M2142.77 2946C2142.77 2876.13 2064.41 2819.48 1967.76 2819.48C1871.1 2819.48 1792.74 2876.13 1792.74 2946C1792.74 3015.87 1871.1 3072.52 1967.76 3072.52C2064.41 3072.52 2142.77 3015.87 2142.77 2946Z" fill="#29ABE2"/>
<path d="M2719.28 2946C2719.28 2892.57 2659.36 2849.25 2585.45 2849.25C2511.53 2849.25 2451.61 2892.57 2451.61 2946C2451.61 2999.43 2511.53 3042.75 2585.45 3042.75C2659.36 3042.75 2719.28 2999.43 2719.28 2946Z" fill="#29ABE2"/>
<path d="M1293.83 3022.73C1297.82 3017.22 1299.71 3011.32 1299.71 3005.5C1299.71 2992.09 1289.66 2979.15 1272.1 2972.5C1246.62 2962.86 1221.25 2952.53 1196.67 2941.8C1179.89 2934.48 1163.13 2926.82 1146.85 2919.02C1123.14 2907.68 1091.2 2912.38 1075.52 2929.51C1059.83 2946.64 1066.32 2969.74 1090.03 2981.08C1107.49 2989.44 1125.47 2997.66 1143.46 3005.5C1169.81 3017.01 1197.02 3028.09 1224.36 3038.43C1249.54 3047.97 1280.64 3040.93 1293.83 3022.73Z" fill="black"/>
<path d="M1647.38 3098.53C1647.38 3081.59 1631.27 3066.27 1607.45 3062.31C1539.67 3051.01 1472.41 3035.88 1407.52 3017.33C1381.08 3009.78 1351.17 3019.14 1340.72 3038.26C1330.26 3057.35 1343.23 3078.99 1369.66 3086.55C1439.32 3106.46 1511.55 3122.7 1584.33 3134.83C1612.03 3139.44 1639.67 3126.95 1646.05 3106.93C1646.95 3104.11 1647.38 3101.3 1647.38 3098.53Z" fill="black"/>
<path d="M2668.7 2405.65L2466.64 2551.73C2456.99 2558.71 2451.56 2568.17 2451.56 2578.04V2627.73H1905.9C1578.5 2627.73 1261.65 2697.34 989.61 2829.03L811.834 2915.08C797.565 2921.99 789 2933.59 789 2946C789 2958.41 797.565 2970.01 811.834 2976.92L989.61 3062.98C1261.65 3194.66 1578.5 3264.27 1905.9 3264.27H2451.56V3313.96C2451.56 3323.83 2456.99 3333.29 2466.64 3340.27L2668.7 3486.35C2678.35 3493.33 2691.45 3497.25 2705.1 3497.25H2983.9C3012.33 3497.25 3035.37 3480.59 3035.37 3460.04V3264.27H3106.67C3135.1 3264.27 3158.15 3247.61 3158.15 3227.06V3181.96L3317.86 3190.21C3332.11 3190.94 3346.15 3187.36 3356.61 3180.33C3367.07 3173.29 3373 3163.43 3373 3153.09V3011.09C3373 3000.85 3367.17 2991.06 3356.87 2984.03C3346.57 2977 3332.73 2973.35 3318.59 2973.93L3158.14 2980.56V2911.43L3318.59 2918.06C3332.73 2918.65 3346.57 2915 3356.87 2907.96C3367.16 2900.93 3373 2891.15 3373 2880.91V2738.91C3373 2728.58 3367.06 2718.71 3356.6 2711.67C3346.14 2704.64 3332.11 2701.05 3317.86 2701.79L3158.14 2710.04V2664.94C3158.14 2644.39 3135.1 2627.73 3106.67 2627.73H3035.37V2431.96C3035.37 2411.41 3012.32 2394.75 2983.89 2394.75H2705.09C2691.45 2394.75 2678.35 2398.67 2668.7 2405.65ZM2932.42 3422.83H2726.42L2554.51 3298.55V3264.27H2932.42V3422.83ZM3270.05 3050.49V3113.13L3158.15 3107.35V3055.11L3270.05 3050.49ZM3270.05 2778.87V2841.52L3158.15 2836.89V2784.65L3270.05 2778.87ZM3055.2 2702.16V2750V2872.04V3019.96V3142V3189.84H2983.9H2503.04H1905.9C1598.97 3189.84 1301.92 3124.59 1046.89 3001.13L932.989 2946L1046.89 2890.87C1301.92 2767.41 1598.97 2702.16 1905.9 2702.16H2503.04H2983.9H3055.2ZM2932.42 2469.17V2627.73H2554.51V2593.45L2726.42 2469.17H2932.42Z" fill="black"/>
<path d="M1741.27 2946C1741.27 3036.28 1842.87 3109.73 1967.76 3109.73C2092.64 3109.73 2194.24 3036.28 2194.24 2946C2194.24 2855.72 2092.64 2782.27 1967.76 2782.27C1842.87 2782.27 1741.27 2855.72 1741.27 2946ZM2091.29 2946C2091.29 2995.24 2035.87 3035.31 1967.76 3035.31C1899.64 3035.31 1844.22 2995.24 1844.22 2946C1844.22 2896.76 1899.64 2856.69 1967.76 2856.69C2035.87 2856.69 2091.29 2896.76 2091.29 2946Z" fill="black"/>
<path d="M2400.14 2946C2400.14 3019.87 2483.26 3079.96 2585.45 3079.96C2687.63 3079.96 2770.75 3019.87 2770.75 2946C2770.75 2872.13 2687.63 2812.04 2585.45 2812.04C2483.26 2812.04 2400.14 2872.13 2400.14 2946ZM2667.8 2946C2667.8 2978.83 2630.86 3005.54 2585.45 3005.54C2540.04 3005.54 2503.09 2978.83 2503.09 2946C2503.09 2913.17 2540.04 2886.46 2585.45 2886.46C2630.86 2886.46 2667.8 2913.17 2667.8 2946Z" fill="black"/>
</g>
<defs>
<clipPath id="clip0_3_126">
<rect width="1868" height="2584" fill="white" transform="translate(789 3880) rotate(-90)"/>
</clipPath>
</defs>
</svg>
