<svg width="4000" height="4000" viewBox="0 0 4000 4000" fill="none" xmlns="http://www.w3.org/2000/svg">
<g clip-path="url(#clip0_0_1)">
<path d="M2075 2578.02C1755.24 2578.02 1496.02 2837.24 1496.02 3157C1496.02 3476.76 1755.24 3735.98 2075 3735.98C2394.76 3735.98 2653.98 3476.76 2653.98 3157C2653.98 2837.24 2394.76 2578.02 2075 2578.02ZM2075 3613.45C1822.91 3613.45 1618.55 3409.09 1618.55 3157C1618.55 2904.91 1822.91 2700.55 2075 2700.55C2327.09 2700.55 2531.45 2904.91 2531.45 3157C2531.45 3409.09 2327.09 3613.45 2075 3613.45Z" fill="#4D4D4D"/>
<path d="M2075 3613.45C2327.09 3613.45 2531.45 3409.09 2531.45 3157C2531.45 2904.91 2327.09 2700.55 2075 2700.55C1822.91 2700.55 1618.55 2904.91 1618.55 3157C1618.55 3409.09 1822.91 3613.45 2075 3613.45Z" fill="#FF931E"/>
<path d="M2075 2700.55C1822.91 2700.55 1618.55 2904.91 1618.55 3157C1618.55 3409.09 1822.91 3613.45 2075 3613.45C2327.09 3613.45 2531.45 3409.09 2531.45 3157C2531.45 2904.91 2327.09 2700.55 2075 2700.55ZM2449.77 3157C2449.77 3210.28 2438.63 3260.94 2418.59 3306.83L2200.09 3180.68C2201.54 3173 2202.33 3165.1 2202.33 3157C2202.33 3101.42 2166.7 3054.18 2117.04 3036.81V2784.59C2304.23 2805.49 2449.77 2964.23 2449.77 3157ZM2032.96 2784.59V3036.81C1983.3 3054.18 1947.67 3101.42 1947.67 3157C1947.67 3165.1 1948.46 3173 1949.91 3180.68L1731.41 3306.83C1711.37 3260.94 1700.23 3210.28 1700.23 3157C1700.23 2964.23 1845.77 2805.49 2032.96 2784.59ZM2075 3531.77C1951.39 3531.77 1841.77 3471.92 1773.5 3379.62L1991.97 3253.48C2014.27 3272.69 2043.26 3284.33 2075 3284.33C2106.74 3284.33 2135.73 3272.69 2158.03 3253.48L2376.5 3379.62C2308.23 3471.92 2198.61 3531.77 2075 3531.77Z" fill="#CCCCCC"/>
<path d="M2501.38 2730.61C2387.49 2616.72 2236.07 2554 2075 2554C1913.93 2554 1762.51 2616.72 1648.61 2730.61C1534.72 2844.51 1472 2995.93 1472 3157C1472 3318.07 1534.72 3469.49 1648.61 3583.39C1762.51 3697.28 1913.93 3760 2075 3760C2236.07 3760 2387.49 3697.28 2501.38 3583.39C2615.28 3469.49 2678 3318.07 2678 3157C2678 2995.93 2615.28 2844.51 2501.38 2730.61ZM2075 3711.95C1769 3711.95 1520.05 3463 1520.05 3157C1520.05 2851 1769 2602.05 2075 2602.05C2381 2602.05 2629.95 2851 2629.95 3157C2629.95 3463 2381 3711.95 2075 3711.95Z" fill="black"/>
<path d="M2388.51 3358.81L2170.04 3232.68C2161.2 3227.57 2150.09 3228.62 2142.35 3235.28C2123.62 3251.42 2099.7 3260.3 2075 3260.3C2050.3 3260.3 2026.38 3251.42 2007.65 3235.28C1999.91 3228.62 1988.8 3227.57 1979.96 3232.68L1761.49 3358.81C1755.56 3362.23 1751.38 3368.02 1749.98 3374.72C1748.59 3381.42 1750.12 3388.4 1754.19 3393.9C1790.51 3443.01 1838.33 3483.73 1892.48 3511.66C1948.48 3540.53 2011.59 3555.8 2075 3555.8C2138.41 3555.8 2201.52 3540.53 2257.52 3511.66C2311.67 3483.73 2359.49 3443.01 2395.81 3393.9C2399.88 3388.4 2401.41 3381.42 2400.02 3374.72C2398.62 3368.02 2394.44 3362.23 2388.51 3358.81ZM2075 3507.75C1973.3 3507.75 1876.03 3462.84 1809.74 3386.44L1990.13 3282.28C2015.07 3299.19 2044.63 3308.35 2075 3308.35C2105.37 3308.35 2134.93 3299.19 2159.87 3282.28L2340.26 3386.44C2273.97 3462.84 2176.7 3507.75 2075 3507.75Z" fill="black"/>
<path d="M1973.52 3176.24C1972.31 3169.82 1971.7 3163.35 1971.7 3157C1971.7 3113.15 1999.5 3073.97 2040.89 3059.49C2050.53 3056.12 2056.98 3047.02 2056.98 3036.81V2784.59C2056.98 2777.75 2054.07 2771.24 2048.97 2766.68C2043.88 2762.12 2037.08 2759.96 2030.29 2760.71C1828.43 2783.25 1676.2 2953.62 1676.2 3157C1676.2 3212.37 1687.37 3266.01 1709.39 3316.44C1712.13 3322.71 1717.4 3327.51 1723.9 3329.65C1726.35 3330.46 1728.88 3330.85 1731.41 3330.85C1735.58 3330.85 1739.73 3329.76 1743.42 3327.63L1961.92 3201.48C1970.75 3196.38 1975.4 3186.26 1973.52 3176.24ZM1743.57 3272.06C1730.74 3235.2 1724.25 3196.61 1724.25 3157C1724.25 2987.2 1844.87 2843.57 2008.93 2812.47V3020.83C1957.29 3045.88 1923.65 3098.62 1923.65 3157C1923.65 3160.61 1923.78 3164.23 1924.05 3167.87L1743.57 3272.06Z" fill="black"/>
<path d="M2119.71 2760.71C2112.91 2759.96 2106.12 2762.13 2101.03 2766.68C2095.93 2771.24 2093.02 2777.75 2093.02 2784.59V3036.81C2093.02 3047.02 2099.47 3056.12 2109.11 3059.49C2150.5 3073.97 2178.3 3113.15 2178.3 3157C2178.3 3163.35 2177.69 3169.82 2176.48 3176.23C2174.6 3186.26 2179.24 3196.38 2188.08 3201.48L2406.58 3327.63C2410.27 3329.76 2414.42 3330.85 2418.59 3330.85C2421.12 3330.85 2423.65 3330.45 2426.1 3329.65C2432.59 3327.51 2437.87 3322.71 2440.61 3316.44C2462.63 3266.02 2473.8 3212.37 2473.8 3157C2473.8 2953.62 2321.57 2783.25 2119.71 2760.71ZM2406.43 3272.06L2225.95 3167.87C2226.22 3164.23 2226.35 3160.61 2226.35 3157C2226.35 3098.62 2192.71 3045.88 2141.07 3020.83V2812.47C2305.13 2843.57 2425.75 2987.2 2425.75 3157C2425.75 3196.61 2419.26 3235.2 2406.43 3272.06Z" fill="black"/>
<path d="M2075 2676.52C1810.06 2676.52 1594.52 2892.06 1594.52 3157C1594.52 3421.94 1810.06 3637.48 2075 3637.48C2339.94 3637.48 2555.48 3421.94 2555.48 3157C2555.48 2892.06 2339.94 2676.52 2075 2676.52ZM2075 3589.43C1836.56 3589.43 1642.57 3395.44 1642.57 3157C1642.57 2918.56 1836.56 2724.57 2075 2724.57C2313.44 2724.57 2507.43 2918.56 2507.43 3157C2507.43 3395.44 2313.44 3589.43 2075 3589.43Z" fill="black"/>
<path d="M2280.23 2946.39C2270.23 2955.11 2269.19 2970.28 2277.91 2980.28C2320.57 3029.23 2344.07 3091.99 2344.07 3157C2344.07 3170.27 2354.83 3181.02 2368.09 3181.02C2381.36 3181.02 2392.12 3170.27 2392.12 3157C2392.12 3080.38 2364.42 3006.4 2314.12 2948.71C2305.41 2938.71 2290.23 2937.67 2280.23 2946.39Z" fill="black"/>
<path d="M2246.57 2890.26C2234.92 2882.76 2222.68 2875.96 2210.19 2870.07C2198.18 2864.4 2183.87 2869.54 2178.21 2881.54C2172.55 2893.54 2177.68 2907.86 2189.68 2913.52C2200.28 2918.52 2210.66 2924.28 2220.54 2930.65C2224.57 2933.25 2229.08 2934.48 2233.53 2934.48C2241.43 2934.48 2249.16 2930.6 2253.75 2923.47C2260.94 2912.31 2257.72 2897.45 2246.57 2890.26Z" fill="black"/>
</g>
<defs>
<clipPath id="clip0_0_1">
<rect width="1206" height="1206" fill="white" transform="translate(1472 2554)"/>
</clipPath>
</defs>
</svg>
