<svg width="4000" height="4000" viewBox="0 0 4000 4000" fill="none" xmlns="http://www.w3.org/2000/svg">
<path d="M1855.57 1343.56C1855.57 1343.56 2013.02 1404.88 2254.48 1465.64C2400.32 1502.4 2659.35 1440.4 2794.21 1414.58C2929.27 1388.67 3162.63 1335.07 3097.88 1288.26C3033.12 1241.46 2846.94 1141.64 2846.94 1141.64C2846.94 1141.64 3024.21 1353.27 1855.55 1343.56H1855.57Z" fill="white" stroke="black" stroke-width="7.65767" stroke-linejoin="round"/>
<path d="M2933.25 1189.65C2933.25 1278.9 2563.88 1351.29 2108.18 1351.29C1652.52 1351.29 1283.21 1278.92 1283.21 1189.65C1378.24 1139.84 1364.51 1097.9 1364.51 1097.9H2855.82C2855.82 1097.9 2842.57 1139.82 2933.25 1189.63V1189.65Z" fill="white" stroke="black" stroke-width="7.65767" stroke-linejoin="round"/>
<path d="M1455.22 778.393C1473.67 747.964 1545.14 642.868 1690.43 568.884C1953.83 434.597 2280.45 460.215 2472.49 540.823C2602.27 595.402 2691.67 665.734 2762.51 768.997C2779.79 794.221 2812.02 848.044 2834.1 925.042C2853.21 991.825 2855.06 1033.94 2858.13 1103.88C2858.13 1162.33 2704.56 1215.04 2440.2 1240.71C2070.24 1276.52 1623.11 1245.41 1441.64 1171.22C1389.72 1150.01 1365.2 1127.43 1365.3 1105.44C1369.12 1015.07 1373.75 912.691 1455.23 778.393H1455.22Z" fill="white"/>
<path d="M1455.22 778.393C1473.67 747.964 1545.14 642.868 1690.43 568.884C1953.83 434.597 2280.45 460.215 2472.49 540.823C2602.27 595.402 2691.67 665.734 2762.51 768.997C2779.79 794.221 2812.02 848.044 2834.1 925.042C2853.21 991.825 2855.06 1033.94 2858.13 1103.88C2858.13 1162.33 2704.56 1215.04 2440.2 1240.71C2070.24 1276.52 1623.11 1245.41 1441.64 1171.22C1389.72 1150.01 1365.2 1127.43 1365.3 1105.44C1369.12 1015.07 1373.75 912.691 1455.23 778.393H1455.22Z" fill="#74FC00" stroke="black" stroke-width="7.65767" stroke-linejoin="round"/>
<path d="M1849.38 1340.87C1849.38 1340.87 2006.87 1402.1 2248.28 1462.95C2394.06 1499.64 2653.07 1437.71 2787.95 1411.8C2923.01 1385.98 3156.4 1332.38 3091.64 1285.48C3026.89 1238.68 2840.8 1138.92 2840.8 1138.92C2840.8 1138.92 3018 1350.56 1849.36 1340.87H1849.38Z" fill="#FFBD34" stroke="#FFBD34" stroke-width="2.55261" stroke-linejoin="round"/>
<path d="M2927.04 1186.96C2927.04 1276.23 2557.78 1348.55 2102.02 1348.55C1646.38 1348.55 1277 1276.25 1277 1186.96C1372.09 1137.16 1358.24 1095.24 1358.24 1095.24H2849.65C2849.65 1095.24 2840.78 1144.17 2931.39 1193.97L2927.04 1186.96Z" fill="#FFBD34" stroke="#FFBD34" stroke-width="2.55261" stroke-linejoin="round"/>
<path d="M1448.97 775.672C1467.41 745.265 1538.92 640.213 1684.18 566.159C1947.55 431.876 2274.14 457.523 2466.23 538.12C2596.09 592.703 2685.44 663.029 2756.22 766.206C2773.54 791.43 2805.84 845.253 2827.81 922.292C2846.87 989.031 2848.74 1031.18 2851.86 1101.04C2851.86 1159.48 2698.21 1212.29 2433.82 1237.87C2063.87 1273.77 1616.78 1242.57 1435.37 1168.38C1383.44 1147.16 1358.87 1124.67 1358.98 1102.6C1362.96 1012.37 1367.59 909.974 1448.97 775.672H1448.97Z" fill="#FFD520"/>
<path d="M1448.97 775.672C1467.41 745.265 1538.92 640.213 1684.18 566.159C1947.55 431.876 2274.14 457.523 2466.23 538.12C2596.09 592.703 2685.44 663.029 2756.22 766.206C2773.54 791.43 2805.84 845.253 2827.81 922.292C2846.87 989.031 2848.74 1031.18 2851.86 1101.04C2851.86 1159.48 2698.21 1212.29 2433.82 1237.87C2063.87 1273.77 1616.78 1242.57 1435.37 1168.38C1383.44 1147.16 1358.87 1124.67 1358.98 1102.6C1362.96 1012.37 1367.59 909.974 1448.97 775.672H1448.97Z" stroke="black" stroke-width="2.55261" stroke-linejoin="round"/>
<path d="M1448.97 775.672C1467.41 745.265 1538.92 640.213 1684.18 566.159C1947.55 431.876 2274.14 457.523 2466.23 538.12C2596.09 592.703 2685.44 663.029 2756.22 766.206C2773.54 791.43 2805.84 845.253 2827.81 922.292C2846.87 989.031 2848.74 1031.18 2851.86 1101.04C2851.86 1159.48 2698.21 1212.29 2433.82 1237.87C2063.87 1273.77 1616.78 1242.57 1435.37 1168.38C1383.44 1147.16 1358.87 1124.67 1358.98 1102.6C1362.96 1012.37 1367.59 909.974 1448.97 775.672H1448.97Z" fill="url(#paint0_radial_0_1)" stroke="#FAC44B" stroke-width="4.0315" stroke-linejoin="round"/>
<path d="M1718.54 546.016C2272.61 290.591 2834.96 815.185 2817.37 1152.06L2868.91 1167.09C2868.88 799.908 2318.51 258.674 1718.53 546.016" fill="#CCCCCC"/>
<path d="M2897.02 1222.22L2868.89 1167.08L2817.35 1152.04L2897.02 1222.22Z" fill="#CCCCCC"/>
<path d="M2653.39 1219.64C2653.39 887.308 2379.08 369.526 1882.32 487.08C2415.03 356.726 2868.77 833.567 2868.77 1167.01L2896.9 1222.15L2681.41 1274.7L2653.39 1219.65L2653.39 1219.64Z" fill="#FFD467"/>
<path d="M2653.44 1219.64L2681.54 1274.8L2555.2 1210.77C2572.84 873.879 2272.64 290.63 1718.53 545.956C2318.51 258.691 2653.43 852.411 2653.43 1219.67L2653.44 1219.64Z" fill="#CCCCCC"/>
<path d="M2653.44 1219.64L2681.54 1274.8L2555.2 1210.77C2572.84 873.879 2272.64 290.63 1718.53 545.956C2318.51 258.691 2653.43 852.411 2653.43 1219.67L2653.44 1219.64Z" fill="#FFBD34"/>
<path d="M1913.23 1006.88L1858.27 1046.73L1849.37 1208.1L1921.62 1113.74L1913.23 1006.88Z" fill="#FFBD34" stroke="#FFBD34" stroke-width="2.55261" stroke-linecap="round" stroke-linejoin="round"/>
<path d="M1569.31 987.88L1540.49 1008.72L1531.64 1170.13L1577.55 1075.73L1569.31 987.88Z" fill="black"/>
<path d="M1849.37 1208.1C1849.37 1208.1 1546.92 1180.98 1531.74 1170.03C1516.53 1159.16 1540.55 1008.65 1540.55 1008.65L1858.3 1046.63L1849.37 1208.1Z" fill="#FFD467" stroke="#FFD467" stroke-width="2.55261" stroke-linecap="round" stroke-linejoin="round"/>
<path d="M1540.48 1008.72L1595.55 968.911L1913.23 1006.88L1858.27 1046.73L1540.48 1008.72Z" fill="#F4B253" stroke="#F4B253" stroke-width="2.55261" stroke-linecap="round" stroke-linejoin="round"/>
<defs>
<radialGradient id="paint0_radial_0_1" cx="0" cy="0" r="1" gradientUnits="userSpaceOnUse" gradientTransform="translate(2448.13 720.977) rotate(180) scale(1299.56 939.515)">
<stop offset="0.5" stop-color="#FFD046"/>
<stop offset="1" stop-color="#F0A957"/>
</radialGradient>
</defs>
</svg>
